<svg width="100" height="100" viewBox="0 0 100 100" fill="none" xmlns="http://www.w3.org/2000/svg">
<path d="M33.3464 100C37.7666 100 42.0059 98.2441 45.1315 95.1185C48.2571 91.9929 50.013 87.7536 50.013 83.3334V66.6667H33.3464C28.9261 66.6667 24.6868 68.4226 21.5612 71.5482C18.4356 74.6738 16.6797 78.9131 16.6797 83.3334C16.6797 87.7536 18.4356 91.9929 21.5612 95.1185C24.6868 98.2441 28.9261 100 33.3464 100Z" fill="#0ACF83"/>
<path d="M16.6797 50C16.6797 45.5797 18.4356 41.3405 21.5612 38.2149C24.6868 35.0893 28.9261 33.3333 33.3464 33.3333H50.013V66.6666H33.3464C28.9261 66.6666 24.6868 64.9107 21.5612 61.7851C18.4356 58.6595 16.6797 54.4203 16.6797 50Z" fill="#A259FF"/>
<path d="M16.6797 16.6667C16.6797 12.2486 18.4338 8.01139 21.5566 4.88615C24.6794 1.76092 28.9153 0.00345158 33.3333 0L50 0V33.3333H33.3464C28.9261 33.3333 24.6868 31.5774 21.5612 28.4518C18.4356 25.3262 16.6797 21.0869 16.6797 16.6667Z" fill="#F24E1E"/>
<path d="M50.0129 0H66.6796C71.0999 0 75.3391 1.75595 78.4647 4.88155C81.5903 8.00716 83.3463 12.2464 83.3463 16.6667C83.3463 21.0869 81.5903 25.3262 78.4647 28.4518C75.3391 31.5774 71.0999 33.3333 66.6796 33.3333H50.0129V0Z" fill="#FF7262"/>
<path d="M83.3463 50C83.3463 54.4203 81.5903 58.6595 78.4647 61.7851C75.3391 64.9107 71.0999 66.6666 66.6796 66.6666C62.2593 66.6666 58.0201 64.9107 54.8945 61.7851C51.7689 58.6595 50.0129 54.4203 50.0129 50C50.0129 45.5797 51.7689 41.3405 54.8945 38.2149C58.0201 35.0893 62.2593 33.3333 66.6796 33.3333C71.0999 33.3333 75.3391 35.0893 78.4647 38.2149C81.5903 41.3405 83.3463 45.5797 83.3463 50Z" fill="#1ABCFE"/>
</svg>
