<svg width="120" height="120" viewBox="0 0 120 120" fill="none" xmlns="http://www.w3.org/2000/svg">
<g clip-path="url(#clip0_127_449)">
<path fill-rule="evenodd" clip-rule="evenodd" d="M60.0544 15.6469C35.1731 15.6469 15 35.82 15 60.7087C15 80.6156 27.9094 97.5037 45.8156 103.464C48.0694 103.877 48.8906 102.486 48.8906 101.289C48.8906 100.222 48.8531 97.3875 48.8306 93.6281C36.2962 96.3506 33.6525 87.5869 33.6525 87.5869C31.6031 82.3837 28.6481 80.9981 28.6481 80.9981C24.5569 78.2006 28.9575 78.2568 28.9575 78.2568C33.48 78.5775 35.8594 82.9012 35.8594 82.9012C39.8794 89.7862 46.4062 87.7968 48.9731 86.6456C49.3837 83.7337 50.5444 81.7481 51.8344 80.6212C41.8294 79.485 31.3087 75.6169 31.3087 58.3519C31.3087 53.4337 33.0656 49.41 35.9475 46.26C35.4844 45.12 33.9375 40.5394 36.3881 34.335C36.3881 34.335 40.1719 33.1237 48.78 38.955C52.3744 37.9556 56.2294 37.455 60.06 37.4381C63.8869 37.455 67.7419 37.9556 71.3419 38.955C79.9444 33.1237 83.7206 34.335 83.7206 34.335C86.1787 40.5394 84.6319 45.12 84.1687 46.26C87.0562 49.41 88.8019 53.4337 88.8019 58.3519C88.8019 75.6619 78.2644 79.47 68.2256 80.5856C69.8456 81.9768 71.2856 84.7256 71.2856 88.9312C71.2856 94.9537 71.2313 99.8137 71.2313 101.289C71.2313 102.497 72.0412 103.899 74.3287 103.459C92.22 97.4869 105.118 80.61 105.118 60.7087C105.118 35.82 84.9431 15.6469 60.0544 15.6469Z" fill="white"/>
</g>
<defs>
<clipPath id="clip0_127_449">
<rect width="120" height="120" fill="white"/>
</clipPath>
</defs>
</svg>
