<svg width="100" height="100" viewBox="0 0 100 100" fill="none" xmlns="http://www.w3.org/2000/svg">
<g clip-path="url(#clip0_127_431)">
<path d="M36.3187 77.3125C36.3187 77.3125 32.475 79.65 38.9906 80.3187C46.8344 81.3187 51.0125 81.1531 59.6937 79.4844C61.4385 80.5528 63.2838 81.4477 65.2031 82.1562C45.6719 90.5062 20.9562 81.6562 36.3187 77.3125ZM33.8187 66.4594C33.8187 66.4594 29.6437 69.6312 36.1562 70.3031C44.6719 71.1375 51.35 71.3031 62.875 68.9687C63.9958 70.1055 65.3682 70.9629 66.8812 71.4719C43.3375 78.4844 16.9562 72.1375 33.8187 66.4594ZM79.9031 85.4906C79.9031 85.4906 82.7406 87.8281 76.7312 89.6656C65.5437 93.0094 29.8125 94.0094 19.7937 89.6656C16.2875 88.1656 22.9656 85.9937 25.1062 85.6594C27.2781 85.1594 28.45 85.1594 28.45 85.1594C24.6062 82.4875 2.90312 90.6687 17.4312 93.0031C57.3375 99.5156 90.2312 90.1656 79.8781 85.4906H79.9031ZM38.125 55.1031C38.125 55.1031 19.925 59.4469 31.6125 60.9469C36.6219 61.6156 46.4719 61.4469 55.6562 60.7812C63.1687 60.1125 70.6875 58.7812 70.6875 58.7812C70.6875 58.7812 68.0156 59.95 66.1781 61.1187C47.6469 65.9625 12.0781 63.7906 22.2656 58.7812C30.9469 54.6062 38.1281 55.1094 38.1281 55.1094L38.125 55.1031ZM70.6875 73.3031C89.3875 63.6156 80.7062 54.2719 74.6937 55.4375C73.1937 55.7719 72.5219 56.1062 72.5219 56.1062C72.5219 56.1062 73.0219 55.1062 74.1906 54.7719C86.0469 50.5969 95.3969 67.2937 70.3469 73.8031C70.3469 73.8031 70.5125 73.6375 70.6812 73.3031H70.6875ZM39.9687 99.6844C58 100.853 85.5531 99.0156 86.2187 90.4969C86.2187 90.4969 84.8844 93.8406 71.3594 96.3406C55.9969 99.1781 36.9625 98.8406 25.775 97.0094C25.775 97.0094 28.1125 99.0125 39.9687 99.6844Z" fill="white"/>
<path d="M59.3626 0.00311279C59.3626 0.00311279 69.7157 10.5219 49.5126 26.3844C33.3157 39.2406 45.8407 46.5875 49.5126 54.9375C39.9939 46.4219 33.1501 38.9062 37.8251 31.8969C44.6689 21.5406 63.5376 16.5625 59.3626 0.00311279ZM54.0501 47.925C58.8939 53.4344 52.7157 58.4437 52.7157 58.4437C52.7157 58.4437 65.072 52.1 59.3939 44.25C54.2189 36.7375 50.2064 33.0625 71.9157 20.5406C71.9157 20.5406 37.6876 29.0562 54.0501 47.925Z" fill="#D94E00"/>
</g>
<defs>
<clipPath id="clip0_127_431">
<rect width="100" height="100" fill="white"/>
</clipPath>
</defs>
</svg>
