<svg width="100" height="100" viewBox="0 0 100 100" fill="none" xmlns="http://www.w3.org/2000/svg">
<path d="M85.22 24.958C73.761 16.383 62.782 16.624 62.782 16.624L61.66 17.906C75.283 21.993 81.614 28.003 81.614 28.003C62.123 17.272 37.297 17.349 17.024 28.003C17.024 28.003 23.595 21.672 38.02 17.585L37.219 16.623C37.219 16.623 26.32 16.383 14.781 24.957C14.781 24.957 3.24097 45.712 3.24097 71.276C3.24097 71.276 9.97297 82.816 27.683 83.377C27.683 83.377 30.648 79.851 33.052 76.806C22.875 73.761 19.028 67.43 19.028 67.43C25.422 71.431 31.887 73.935 39.944 75.524C53.052 78.222 69.357 75.448 81.535 67.43C81.535 67.43 77.528 73.921 67.03 76.886C69.434 79.851 72.319 83.297 72.319 83.297C90.029 82.736 96.76 71.196 96.76 71.277C96.759 45.713 85.22 24.958 85.22 24.958ZM35.055 63.824C30.567 63.824 26.881 59.897 26.881 55.009C27.209 43.302 42.983 43.338 43.229 55.009C43.229 59.897 39.622 63.824 35.055 63.824ZM64.304 63.824C59.816 63.824 56.13 59.897 56.13 55.009C56.49 43.325 72.067 43.32 72.478 55.009C72.478 59.897 68.872 63.824 64.304 63.824Z" fill="#6665D2"/>
</svg>