<svg width="100" height="100" viewBox="0 0 100 100" fill="none" xmlns="http://www.w3.org/2000/svg">
<g clip-path="url(#clip0_138_646)">
<path d="M97.2022 47.2054L49.9983 0.00146484L2.79442 47.2054C2.05441 47.9484 1.63892 48.9544 1.63892 50.003C1.63892 51.0517 2.05441 52.0577 2.79442 52.8007L49.9983 100.005L97.2022 52.8007C97.9423 52.0577 98.3577 51.0517 98.3577 50.003C98.3577 48.9544 97.9423 47.9484 97.2022 47.2054ZM49.9983 64.7823L35.2142 49.9982L49.9983 35.214L64.7825 49.9982L49.9983 64.7823Z" fill="#2684FF"/>
<path d="M49.9983 35.3116C45.3483 30.6623 42.727 24.3617 42.7069 17.7861C42.6868 11.2105 45.2695 4.89407 49.8909 0.216309L17.4419 32.4603L35.0481 50.0665L49.9983 35.3116Z" fill="url(#paint0_linear_138_646)"/>
<path d="M64.8215 49.9591L49.9983 64.7823C52.3113 67.0939 54.1462 69.8386 55.3981 72.8595C56.65 75.8805 57.2944 79.1185 57.2944 82.3886C57.2944 85.6587 56.65 88.8967 55.3981 91.9177C54.1462 94.9386 52.3113 97.6833 49.9983 99.9949L82.418 67.5751L64.8215 49.9591Z" fill="url(#paint1_linear_138_646)"/>
</g>
<defs>
<linearGradient id="paint0_linear_138_646" x1="47.3618" y1="20.2638" x2="26.7186" y2="40.907" gradientUnits="userSpaceOnUse">
<stop offset="0.18" stop-color="#0052CC"/>
<stop offset="1" stop-color="#2684FF"/>
</linearGradient>
<linearGradient id="paint1_linear_138_646" x1="52.8204" y1="79.5665" x2="73.4245" y2="58.9624" gradientUnits="userSpaceOnUse">
<stop offset="0.18" stop-color="#0052CC"/>
<stop offset="1" stop-color="#2684FF"/>
</linearGradient>
<clipPath id="clip0_138_646">
<rect width="100" height="100" fill="white"/>
</clipPath>
</defs>
</svg>