<svg width="100" height="100" viewBox="0 0 100 100" fill="none" xmlns="http://www.w3.org/2000/svg">
<g clip-path="url(#clip0_138_619)">
<mask id="mask0_138_619" style="mask-type:luminance" maskUnits="userSpaceOnUse" x="-40" y="-40" width="180" height="180">
<path d="M139.737 50.1896C139.737 99.8043 99.5064 139.99 49.9366 139.99C0.366795 139.99 -39.8638 99.8043 -39.8638 50.1896C-39.8638 0.574886 0.366795 -39.6108 49.9366 -39.6108C99.5064 -39.6108 139.737 0.574886 139.737 50.1896Z" fill="white"/>
</mask>
<g mask="url(#mask0_138_619)">
<path d="M41.593 14.9878C41.593 18.2206 38.9692 20.8444 35.7364 20.8444C32.5036 20.8444 29.8799 18.2206 29.8799 14.9878C29.8799 11.755 32.5036 9.13129 35.7364 9.13129C38.9692 9.13129 41.593 11.755 41.593 14.9878Z" fill="#F9F9F9"/>
<path d="M49.3705 3.33722C45.513 3.35284 41.8194 3.68861 38.571 4.25084C29.0092 5.92972 27.2679 9.42022 27.2679 15.8741V24.4013H49.8702V27.2397H18.7876C12.2126 27.2397 6.46542 31.1441 4.66551 38.5702C2.59229 47.0817 2.48297 52.4034 4.66551 61.278C6.2663 67.8959 10.0965 72.6084 16.6675 72.6084H23.3167V61.2936C23.3167 53.9261 29.7823 47.4604 37.4544 47.4604H61.1148C67.3969 47.4604 73.3472 42.334 73.3472 36.0987V15.921C73.3472 9.86531 67.2603 5.30502 61.1148 4.29769C57.2417 3.65738 53.2163 3.36845 49.3627 3.38407M37.1459 10.1855C39.4807 10.1855 41.386 12.1064 41.386 14.4725C41.386 16.8229 39.4807 18.7126 37.1459 18.7126C34.7955 18.7126 32.8902 16.8229 32.8902 14.4725C32.8902 12.1103 34.7799 10.1855 37.1459 10.1855Z" fill="#4586B9"/>
<path d="M68.9392 85.2664C68.9392 88.4992 66.3154 91.123 63.0826 91.123C59.8342 91.123 57.2104 88.4992 57.2104 85.2664C57.2104 82.0336 59.8342 79.4099 63.0826 79.4099C66.3154 79.4099 68.9392 82.0336 68.9392 85.2664Z" fill="#F9F9F9"/>
<path d="M76.5644 27.2319V37.1607C76.5644 44.8484 69.9621 50.416 62.4423 50.416H37.6418C31.4651 50.416 26.3386 56.5771 26.3386 62.6953V83.9858C26.3386 90.0414 31.6603 93.5944 37.6418 95.3318C44.7946 97.4051 52.5877 97.8033 61.146 95.3318C66.8347 93.6998 72.4492 90.4201 72.4492 83.9858V75.4586H49.878V72.6202H83.7679C90.3272 72.6202 92.7831 68.0755 95.0711 61.2897C97.4332 54.2892 97.3122 47.5463 95.0711 38.5819C93.439 32.1007 90.3429 27.2515 83.7679 27.2515M62.5828 81.1512C64.9176 81.1512 66.823 83.0409 66.823 85.3913C66.823 87.7418 64.9333 89.6783 62.5828 89.6783C60.2324 89.6783 58.3271 87.7418 58.3271 85.3913C58.3271 83.0409 60.2324 81.1512 62.5828 81.1512Z" fill="#FFE634"/>
</g>
</g>
<defs>
<clipPath id="clip0_138_619">
<rect width="100" height="100" fill="white"/>
</clipPath>
</defs>
</svg>