<svg width="100" height="100" viewBox="0 0 100 100" fill="none" xmlns="http://www.w3.org/2000/svg">
<g clip-path="url(#clip0_127_442)">
<path d="M16.5611 45.8929L46.5895 15.6845C54.1283 8.10418 66.3463 8.10418 73.881 15.6845C75.6857 17.5845 75.6008 20.659 73.7443 22.5265C71.8585 24.4243 68.8093 24.4243 66.9194 22.5265L66.4637 21.9982C62.6744 18.7668 56.9887 18.9502 53.4122 22.55L22.709 53.4319C20.687 55.3061 17.6336 55.3061 15.7499 53.4112C13.8646 51.5178 13.8646 48.4427 15.7499 46.5481C16.0033 46.2961 16.2735 46.0785 16.5611 45.8929ZM83.9779 46.5493C82.0921 44.6547 79.042 44.6547 77.156 46.5493C76.9042 46.8048 76.6852 47.0782 76.4985 47.3684L46.5907 77.4536C42.8217 81.2426 36.7116 81.2426 32.9436 77.4536L32.8068 77.4317C30.9248 75.5373 27.8714 75.5373 25.9849 77.4317C24.1024 79.3231 24.1024 82.4013 25.9849 84.2915C26.2258 84.5336 26.4825 84.7451 26.7538 84.9286C34.3316 91.8884 46.0841 91.6864 53.4122 84.3155L83.9779 53.4124C85.8605 51.5192 85.8605 48.4439 83.9779 46.5493ZM37.0285 66.4811C36.7426 66.6699 36.4696 66.887 36.2197 67.1388C34.3339 69.0311 34.3339 72.1073 36.2197 73.9986C38.1029 75.893 41.1551 75.893 43.1783 74.0226L73.8813 43.1351C77.6498 39.346 83.7599 39.346 87.5254 43.1351C91.2984 46.9259 91.2984 53.0739 87.5254 56.8631L58.4123 86.2873C62.1841 90.0754 68.2909 90.0754 72.0583 86.2873L94.3501 63.7262C101.883 56.1468 101.883 43.8563 94.3501 36.2727C86.8165 28.6972 74.5974 28.6972 67.0582 36.2727L37.0285 66.4811ZM32.9424 63.7262L63.5089 32.8236C65.3935 30.9268 65.3935 27.8523 63.5089 25.9614C61.6263 24.0647 58.5697 24.0647 56.6869 25.9614C56.433 26.2116 56.2161 26.4875 56.0315 26.7779L26.1211 56.8643C22.3526 60.6556 16.2447 60.6556 12.4777 56.8643C8.70545 53.075 8.70545 46.9269 12.4777 43.1362L41.5906 13.7157C37.8237 9.92324 31.7116 9.92324 27.9435 13.7157L5.65206 36.2727C-1.88435 43.8563 -1.88435 56.1468 5.65206 63.7262C13.1892 71.3089 25.4116 71.3089 32.9424 63.7262Z" fill="white"/>
</g>
<defs>
<clipPath id="clip0_127_442">
<rect width="100" height="100" fill="white"/>
</clipPath>
</defs>
</svg>