<svg width="100" height="100" viewBox="0 0 100 100" fill="none" xmlns="http://www.w3.org/2000/svg">
<g clip-path="url(#clip0_138_632)">
<rect width="100" height="100" rx="50" fill="white"/>
<path d="M7.0625 50C7.0625 67.0312 16.8438 81.7031 31.125 88.5875L10.8687 32.6094C8.51562 38.0438 7.0625 43.8438 7.0625 50ZM78.9844 47.825C78.9844 42.575 76.9906 38.7625 75.3594 36.05C73.1844 32.425 71.1937 29.5281 71.1937 25.9062C71.1937 21.9219 74.275 18.2969 78.4437 18.2969H78.9875C71.375 11.2313 61.2313 7.0625 50 7.0625C42.8942 7.12541 35.9114 8.92446 29.6598 12.303C23.4082 15.6815 18.0773 20.5371 14.1312 26.4469H16.85C21.3813 26.4469 28.2625 25.9031 28.2625 25.9031C30.6187 25.7219 30.8 29.1625 28.625 29.5281C28.625 29.5281 26.2687 29.8906 23.7344 29.8906L39.3156 76.2656L48.7344 48.1844L42.0312 29.8875L37.5 29.5312C35.1437 29.35 35.5062 25.9062 37.6812 25.9062C37.6812 25.9062 44.7438 26.45 48.9125 26.45C53.4438 26.45 60.325 25.9062 60.325 25.9062C62.6813 25.725 62.8625 29.1656 60.6875 29.5312C60.6875 29.5312 58.3312 29.8937 55.7969 29.8937L71.375 76.0938L75.75 61.7812C77.5625 55.8031 79.0094 51.6375 79.0094 47.8312L78.9844 47.825ZM50.725 53.8031L37.8625 91.125C41.6656 92.2125 45.8312 92.9375 50 92.9375C55.0719 92.9375 59.7812 92 64.3125 90.5813C64.1312 90.4 64.1312 90.2188 63.95 90.0375L50.725 53.8031ZM87.6813 29.5312L88.0437 33.9062C88.0437 38.2812 87.3187 43.1469 84.7844 49.3063L71.7406 87.1687C84.4219 79.7406 93.1156 65.9719 93.1156 50.0312C92.9344 42.6031 90.9406 35.7188 87.6781 29.5625L87.6813 29.5312ZM50 0C22.4625 0 0 22.4625 0 50C0 77.5375 22.4625 100 50 100C77.5375 100 100 77.5375 100 50C100 22.4625 77.5375 0 50 0ZM50 97.825C23.7312 97.825 2.35625 76.45 2.35625 50C2.37608 37.3702 7.40205 25.2633 16.3327 16.3327C25.2633 7.40205 37.3702 2.37608 50 2.35625C62.6298 2.37608 74.7367 7.40205 83.6673 16.3327C92.5979 25.2633 97.6239 37.3702 97.6438 50C97.6438 76.45 76.2688 97.825 50 97.825Z" fill="#00749A"/>
</g>
<defs>
<clipPath id="clip0_138_632">
<rect width="100" height="100" rx="50" fill="white"/>
</clipPath>
</defs>
</svg>