<svg width="40" height="30" viewBox="0 0 40 30" fill="none" xmlns="http://www.w3.org/2000/svg">
<path d="M33.9138 2.53371C33.9027 2.5125 33.8842 2.49588 33.8618 2.48683C31.2684 1.31553 28.5316 0.480304 25.7199 0.00204869C25.6943 -0.00262616 25.6679 0.000746332 25.6445 0.0116865C25.621 0.0226267 25.6016 0.0405776 25.5891 0.0629864C25.2164 0.728807 24.8781 1.41271 24.5755 2.1121C21.5446 1.65921 18.4617 1.65921 15.4308 2.1121C15.1261 1.41094 14.7824 0.72686 14.4012 0.0629864C14.3881 0.0410646 14.3686 0.0235271 14.3453 0.012658C14.322 0.00178887 14.2958 -0.00190813 14.2703 0.00204869C11.4583 0.4793 8.72133 1.31459 6.12824 2.4869C6.10605 2.49616 6.08732 2.51198 6.07464 2.53217C0.888973 10.1553 -0.531576 17.5909 0.165297 24.9345C0.167258 24.9525 0.172875 24.97 0.181815 24.9858C0.190755 25.0016 0.202836 25.0155 0.217338 25.0266C3.2369 27.2274 6.61432 28.9073 10.2055 29.9946C10.2308 30.0021 10.2578 30.0018 10.2829 29.9937C10.3079 29.9856 10.3299 29.9701 10.3458 29.9494C11.1171 28.9163 11.8005 27.8224 12.3891 26.6787C12.3972 26.663 12.4019 26.6458 12.4027 26.6282C12.4035 26.6106 12.4006 26.5931 12.394 26.5767C12.3875 26.5603 12.3775 26.5455 12.3647 26.5332C12.3519 26.5209 12.3366 26.5114 12.3198 26.5054C11.2421 26.0995 10.1988 25.6101 9.19955 25.042C9.1814 25.0315 9.16615 25.0168 9.15516 24.9991C9.14417 24.9814 9.13777 24.9613 9.13653 24.9406C9.13528 24.92 9.13923 24.8993 9.14803 24.8805C9.15683 24.8616 9.1702 24.8452 9.18696 24.8327C9.39662 24.6781 9.60642 24.5172 9.80662 24.3548C9.82441 24.3403 9.84593 24.3311 9.86877 24.3281C9.89161 24.325 9.91485 24.3283 9.93588 24.3376C16.4821 27.2785 23.5693 27.2785 30.038 24.3376C30.0591 24.3277 30.0826 24.324 30.1057 24.3267C30.1289 24.3295 30.1508 24.3387 30.1689 24.3532C30.3691 24.5157 30.5789 24.6781 30.7901 24.8327C30.807 24.8451 30.8204 24.8614 30.8294 24.8801C30.8383 24.8989 30.8424 24.9195 30.8413 24.9402C30.8402 24.9609 30.834 24.981 30.8231 24.9988C30.8123 25.0165 30.7971 25.0314 30.7791 25.042C29.7821 25.6149 28.7378 26.1039 27.6573 26.5038C27.6405 26.5101 27.6253 26.5198 27.6126 26.5323C27.5999 26.5448 27.59 26.5598 27.5835 26.5763C27.5771 26.5928 27.5743 26.6104 27.5753 26.6281C27.5763 26.6457 27.5811 26.663 27.5893 26.6787C28.1877 27.816 28.8702 28.9086 29.631 29.9476C29.6465 29.9689 29.6684 29.9849 29.6935 29.9933C29.7187 30.0017 29.746 30.0021 29.7714 29.9944C33.369 28.9108 36.7523 27.2308 39.7756 25.0266C39.7904 25.016 39.8026 25.0025 39.8116 24.9869C39.8206 24.9713 39.8261 24.9539 39.8277 24.9361C40.662 16.4461 38.4309 9.07138 33.9138 2.53371ZM13.3668 20.463C11.3959 20.463 9.77193 18.6827 9.77193 16.4961C9.77193 14.3096 11.3644 12.5291 13.3668 12.5291C15.3848 12.5291 16.993 14.3251 16.9615 16.496C16.9615 18.6827 15.369 20.463 13.3668 20.463ZM26.658 20.463C24.6872 20.463 23.0632 18.6827 23.0632 16.4961C23.0632 14.3096 24.6557 12.5291 26.658 12.5291C28.6761 12.5291 30.2843 14.3251 30.2528 16.496C30.2528 18.6827 28.6761 20.463 26.658 20.463Z" fill="#E9E9E9"/>
</svg>
