<svg width="40" height="30" viewBox="0 0 40 30" fill="none" xmlns="http://www.w3.org/2000/svg">
<path d="M39.165 4.63219C38.6817 2.81688 37.3751 1.41471 35.7185 0.904996L35.6835 0.896055C32.567 2.61174e-05 20.0175 2.53689e-05 20.0175 2.53689e-05C20.0175 2.53689e-05 7.50135 -0.0178587 4.35149 0.896055C2.65989 1.41471 1.35328 2.81688 0.878297 4.59463L0.869963 4.63219C0.316653 7.69228 0 11.212 0 14.8104C0 14.8838 0 14.9571 0 15.0286V15.0179C0 15.068 0 15.1288 0 15.1878C0 18.7862 0.316653 22.3042 0.921628 25.7148L0.869963 25.366C1.35328 27.1814 2.65989 28.5835 4.31649 29.0932L4.35149 29.1022C7.46636 30 20.0175 30 20.0175 30C20.0175 30 32.532 30 35.6835 29.1022C37.3751 28.5835 38.6817 27.1814 39.1567 25.4036L39.165 25.366C39.6967 22.3703 40 18.9204 40 15.3971C40 15.2647 40 15.1306 39.9983 14.9982V15.0179C40 14.8945 40 14.7478 40 14.6012C40 11.0779 39.6967 7.62968 39.115 4.28701L39.165 4.63219ZM16.0127 21.4439V8.574L26.4556 15.0197L16.0127 21.4439Z" fill="#E9E9E9"/>
</svg>
