<svg width="40" height="40" viewBox="0 0 40 40" fill="none" xmlns="http://www.w3.org/2000/svg">
<circle cx="20" cy="20" r="20" fill="#E9E9E9"/>
<path d="M18.3789 37.3045L18.2617 35.0779L18.2617 34.0623C18.2617 33.4373 18.3398 33.0532 18.4961 32.91C18.6523 32.7798 18.8216 32.6496 19.0039 32.5193C19.7331 31.9985 20.7877 31.2954 22.1679 30.41C22.1028 31.7121 22.0703 32.3826 22.0703 32.4217C22.0703 32.4738 22.1028 33.216 22.1679 34.6483L18.3789 37.3045ZM14.2969 6.56232C14.6875 6.24982 15.0716 5.93081 15.4492 5.60529C15.8138 5.27976 16.1979 4.98029 16.6015 4.70685C17.539 4.09487 18.4375 3.78888 19.2969 3.78888C20.1041 3.78888 20.6706 3.91258 20.9961 4.15997C21.6601 4.65476 21.9922 5.56622 21.9922 6.89435L21.9922 16.1522C21.9922 17.5584 22.2461 18.4699 22.7539 18.8865C22.9883 19.0818 23.2422 19.1795 23.5156 19.1795C23.789 19.1795 24.0234 19.16 24.2187 19.1209C24.401 19.0949 24.5898 19.0623 24.7851 19.0233C24.9804 18.9842 25.1823 18.9451 25.3906 18.9061C24.7396 19.4139 24.1341 19.8696 23.5742 20.2733C23.0013 20.6769 22.513 21.0154 22.1094 21.2889C21.7057 21.5623 21.1458 21.9464 20.4297 22.4412C19.7135 22.949 18.9713 23.4048 18.2031 23.8084L18.2031 10.0193C18.2031 8.69122 18.1185 7.85138 17.9492 7.49982C17.5846 6.78367 16.7773 6.4256 15.5273 6.4256C15.1888 6.4256 14.7786 6.47117 14.2969 6.56232Z" fill="black"/>
</svg>
