<svg width="159" height="150" viewBox="0 0 159 150" fill="none" xmlns="http://www.w3.org/2000/svg">
<ellipse cx="79.2253" cy="75" rx="79.2253" ry="75" fill="#E9E9E9"/>
<path d="M73.1459 139.142L72.7065 130.792L72.7065 126.984C72.7065 124.64 72.9994 123.2 73.5854 122.663C74.1713 122.174 74.8061 121.686 75.4897 121.198C78.2241 119.245 82.1791 116.608 87.3549 113.288C87.1108 118.17 86.9887 120.685 86.9887 120.831C86.9887 121.027 87.1108 123.81 87.3549 129.181L73.1459 139.142ZM57.8383 23.8588C59.3032 22.6869 60.7436 21.4906 62.1596 20.2699C63.5268 19.0492 64.9672 17.9262 66.4809 16.9008C69.9965 14.6059 73.3657 13.4584 76.5883 13.4584C79.6157 13.4584 81.7397 13.9223 82.9604 14.85C85.4506 16.7055 86.6957 20.1235 86.6957 25.1039L86.6957 59.8207C86.6957 65.0942 87.6479 68.5121 89.5522 70.0746C90.4311 70.8071 91.3832 71.1733 92.4086 71.1733C93.434 71.1733 94.3129 71.1 95.0453 70.9535C95.7289 70.8559 96.4369 70.7338 97.1694 70.5873C97.9018 70.4408 98.6586 70.2944 99.4399 70.1479C96.9985 72.0522 94.728 73.7612 92.6283 75.2748C90.4799 76.7885 88.6489 78.058 87.1352 79.0834C85.6215 80.1088 83.5219 81.5492 80.8364 83.4047C78.1508 85.309 75.3676 87.018 72.4867 88.5317L72.4867 36.8227C72.4867 31.8422 72.1694 28.6928 71.5346 27.3744C70.1674 24.6889 67.1401 23.3461 62.4526 23.3461C61.183 23.3461 59.6449 23.517 57.8383 23.8588Z" fill="black"/>
</svg>
